<?xml version="1.0" encoding="UTF-8" standalone="no"?>
<svg width="995px" height="1998px" viewBox="0 0 995 1998" version="1.1" xmlns="http://www.w3.org/2000/svg" xmlns:xlink="http://www.w3.org/1999/xlink" xmlns:sketch="http://www.bohemiancoding.com/sketch/ns">
    <!-- Generator: Sketch 3.4.4 (17249) - http://www.bohemiancoding.com/sketch -->
    <title>Group</title>
    <desc>Created with Sketch.</desc>
    <defs>
        <path id="path-1" d="M824.647742,0 C904.923856,0 970,66.2490185 970,147.971958 L970,1822.02804 C970,1903.74802 904.923856,1970 824.647742,1970 L168.352258,1970 C88.0761439,1970 23,1903.74802 23,1822.02804 L23,147.971958 C23,66.2490185 88.0761439,0 168.352258,0 L824.647742,0 Z"></path>
        <path id="path-2" d="M758.8094,207.537667 L57.1145783,1440.08086 L56.9922701,207 L758.8094,207.537667 Z"></path>
    </defs>
    <g id="Page-1" stroke="none" stroke-width="1" fill="none" fill-rule="evenodd" sketch:type="MSPage">
        <g id="Artboard-1" sketch:type="MSArtboardGroup" transform="translate(-290.000000, -2720.000000)">
            <g id="Group" sketch:type="MSLayerGroup" transform="translate(290.000000, 2734.000000)">
                <g id="BODY">
                    <rect id="button" fill="#EAEAEA" sketch:type="MSShapeGroup" x="973" y="351" width="21.9769585" height="135" rx="5"></rect>
                    <rect id="lock" fill="#EAEAEA" sketch:type="MSShapeGroup" x="2" y="205" width="18.4470046" height="85" rx="5"></rect>
                    <rect id="minus" fill="#EAEAEA" sketch:type="MSShapeGroup" x="0" y="516.87074" width="15.9769585" height="135" rx="5"></rect>
                    <rect id="plus" fill="#EAEAEA" sketch:type="MSShapeGroup" x="0" y="319" width="17.4470046" height="135" rx="5"></rect>
                    <g id="body">
                        <use stroke="none" fill="#FFFFFF" fill-rule="evenodd" sketch:type="MSShapeGroup" xlink:href="#path-1"></use>
                        <use stroke="#EAEAEA" stroke-width="14" fill="none" xlink:href="#path-1"></use>
                    </g>
                </g>
                <g id="DETAILS" transform="translate(411.658986, 21.125734)" sketch:type="MSShapeGroup">
                    <path d="M75.5691244,1903.59753 C110.401901,1903.59753 138.639445,1875.36964 138.639445,1840.54877 C138.639445,1805.72789 110.401901,1777.5 75.5691244,1777.5 C40.736348,1777.5 12.4988034,1805.72789 12.4988034,1840.54877 C12.4988034,1875.36964 40.736348,1903.59753 75.5691244,1903.59753 Z" id="home" stroke="#EAEAEA" stroke-width="11" fill="#FFFFFF"></path>
                    <ellipse id="camera" fill="#DAD9D7" cx="76.1935484" cy="16.1880141" rx="16.1935484" ry="16.1880141"></ellipse>
                    <rect id="headphone" fill="#DAD9D7" x="0" y="75" width="152.682028" height="25.4383079" rx="8"></rect>
                </g>
                <rect id="screen" fill="#E6E6E6" sketch:type="MSShapeGroup" x="60" y="207" width="873.24424" height="1552"></rect>
                <mask id="mask-3" sketch:name="Mask" fill="white">
                    <use xlink:href="#path-2"></use>
                </mask>
                <use id="Mask" fill="#ECECEC" sketch:type="MSShapeGroup" xlink:href="#path-2"></use>
            </g>
        </g>
    </g>
</svg>